<svg width="120" height="118" viewBox="0 0 120 118" fill="none" xmlns="http://www.w3.org/2000/svg">
<path d="M116.941 53.8718L65.2697 3.39786C62.2959 0.491078 57.4697 0.491078 54.4912 3.39786L43.7625 13.8802L57.3731 27.1759C60.5372 26.1328 64.1634 26.8325 66.6844 29.2951C69.2184 31.7733 69.9291 35.3459 68.835 38.4468L81.9525 51.2617C85.1259 50.193 88.7887 50.8835 91.3219 53.3635C94.8656 56.8225 94.8656 62.43 91.3219 65.8909C90.4797 66.7139 89.4798 67.3669 88.3793 67.8123C87.2788 68.2578 86.0992 68.487 84.908 68.487C83.7167 68.487 82.5371 68.2578 81.4366 67.8123C80.3361 67.3669 79.3362 66.7139 78.4941 65.8909C77.2288 64.6541 76.3663 63.0794 76.0152 61.3649C75.664 59.6504 75.8399 57.8727 76.5206 56.2557L64.2881 44.3062L64.2862 75.756C65.1738 76.1829 65.9841 76.7484 66.6853 77.4301C70.2272 80.8891 70.2272 86.4948 66.6853 89.9611C63.1425 93.4201 57.4003 93.4201 53.8612 89.9611C50.3194 86.4957 50.3194 80.89 53.8612 77.4301C54.7098 76.5998 55.7191 75.9429 56.8303 75.4977V43.7567C55.7182 43.3127 54.7086 42.6553 53.8612 41.8234C51.1781 39.2042 50.5322 35.3578 51.9084 32.1378L38.49 19.0298L3.06 53.6383C1.63061 55.035 0.827621 56.9292 0.827621 58.9042C0.827621 60.8792 1.63061 62.7733 3.06 64.1701L54.7322 114.644C57.7078 117.551 62.5322 117.551 65.5125 114.644L116.942 64.4045C118.371 63.0074 119.174 61.1131 119.173 59.138C119.173 57.1629 118.37 55.2687 116.941 53.8718Z" fill="#F34F29"/>
</svg>
