<svg width="120" height="118" viewBox="0 0 120 118" fill="none" xmlns="http://www.w3.org/2000/svg">
<path d="M60 10.1542C32.385 10.1542 10 32.0213 10 58.9974C10 80.7008 24.5025 99.0756 44.55 105.437H75.45C95.4975 99.0756 110 80.7008 110 58.9974C110 32.0213 87.615 10.1542 60 10.1542Z" fill="url(#paint0_linear_5_51)"/>
<path opacity="0.05" d="M75.025 102.946L75 88.7868C75 86.4936 74.45 84.2542 73.395 82.2248C87.4975 79.4578 94.36 71.3132 94.36 57.3709C94.36 51.8638 92.6975 47.0015 89.42 42.9133C89.67 42.1391 89.855 41.3381 89.97 40.5175C90.44 37.1742 89.9125 34.9885 89.4875 33.2301L89.42 32.9468C88.955 31.0029 88.3975 29.6157 88.375 29.5571L88.0975 28.8684L87.82 28.1798L87.065 28.1016L86.3075 28.0235C86.3075 28.0235 85.81 27.9722 85.055 27.9722C84.0075 27.9722 82.455 28.0747 80.9875 28.5607L80.4975 28.7219C78.6475 29.33 76.9 29.9064 74.455 31.3326C73.74 31.7502 72.9575 32.2264 72.12 32.7588C68.335 31.843 64.2625 31.3765 60 31.3765C55.695 31.3765 51.5875 31.8454 47.7775 32.771C46.93 32.2337 46.1425 31.7526 45.4225 31.3326C42.9775 29.9064 41.23 29.3325 39.38 28.7219L38.89 28.5607C37.4275 28.0747 35.8725 27.9722 34.825 27.9722C34.07 27.9722 33.5725 28.0235 33.5725 28.0235L32.8175 28.1016L32.0675 28.1773L31.7875 28.8636L31.505 29.5547C31.48 29.6182 30.9225 31.0053 30.4575 32.9517L30.39 33.2326C29.965 34.9885 29.4375 37.1767 29.9075 40.5175C30.0275 41.3625 30.22 42.1904 30.4825 42.9866C27.27 47.0552 25.6425 51.8907 25.6425 57.3709C25.6425 71.279 32.5125 79.4187 46.635 82.2077C46.15 83.1552 45.7725 84.1565 45.505 85.1969C45.0125 85.3605 44.56 85.4704 44.16 85.5314C43.565 85.6194 42.9425 85.6633 42.3125 85.6633C40.5975 85.6633 39.25 85.3361 38.725 85.0308C37.9425 84.5765 36.545 83.2553 35.19 81.3236C34.0325 79.6751 32.2275 77.5187 30.21 76.6175C28.465 75.8385 26.6175 75.3916 25.1375 75.3916C24.7925 75.3916 24.475 75.416 24.1975 75.46C22.905 75.6602 21.825 76.3538 21.2375 77.3648C20.73 78.2367 20.65 79.2526 21.0175 80.1513C21.565 81.4897 23.145 82.5569 24.375 83.2163C24.98 83.5411 26.2875 84.728 27.05 85.9246C27.6225 86.8233 27.8875 87.4632 28.255 88.3472C28.4725 88.8723 28.7125 89.4438 29.0375 90.1349C30.2125 92.6308 33.88 94.8336 34.295 95.0754C36.31 96.255 39.6975 96.6335 42.1875 96.7434L42.495 96.7507H42.4975C43.0975 96.7507 43.9225 96.6945 45.0075 96.5773V102.959C45.0125 104.251 43.665 104.544 41.8825 104.517L43.25 104.966C48.4875 106.795 54.1125 107.841 60 107.841C65.8875 107.841 71.5125 106.795 76.7575 104.969L78.515 104.329C76.7375 104.27 75.04 103.987 75.025 102.946Z" fill="black"/>
<path opacity="0.07" d="M76.9525 104.903C75.9375 105.017 73.75 104.636 73.75 102.961V88.7868C73.75 86.1151 72.93 83.5337 71.41 81.3333C86.1975 78.9962 93.1075 71.3376 93.1075 57.3709C93.1075 51.9078 91.3925 47.1285 88.01 43.1526C88.3525 42.2612 88.5925 41.321 88.73 40.3515C89.1675 37.2353 88.69 35.2571 88.27 33.511L88.2025 33.2277C87.7575 31.3692 87.2325 30.0602 87.21 30.0065L86.9325 29.3178L86.175 29.2396C86.175 29.2396 85.73 29.1932 85.0525 29.1932C84.1 29.1932 82.6925 29.2836 81.3875 29.7183L80.8975 29.8795C79.1125 30.468 77.425 31.0224 75.095 32.3803C74.265 32.8638 73.34 33.4328 72.3425 34.0751C68.51 33.0958 64.3625 32.5976 60 32.5976C55.595 32.5976 51.4125 33.0983 47.5525 34.0873C46.545 33.4402 45.615 32.8687 44.78 32.3803C42.45 31.0224 40.7625 30.4656 38.9775 29.8795L38.4875 29.7183C37.185 29.286 35.775 29.1932 34.8225 29.1932C34.145 29.1932 33.7 29.2396 33.7 29.2396L32.945 29.3178L32.6625 30.0089C32.64 30.0626 32.115 31.3716 31.67 33.2301L31.6025 33.5134C31.18 35.2596 30.7025 37.2353 31.1425 40.3515C31.2825 41.3454 31.5325 42.3076 31.8875 43.2186C28.57 47.1749 26.89 51.9297 26.89 57.3709C26.89 71.2985 33.805 78.9547 48.605 81.3187C47.6175 82.7596 46.9275 84.3836 46.5725 86.1151C45.7475 86.4326 45 86.6426 44.345 86.7403C43.6875 86.838 43.0025 86.8868 42.31 86.8868C40.585 86.8868 38.9275 86.5718 38.085 86.0833C36.985 85.4459 35.4425 83.8512 34.155 82.0171C33.28 80.7716 31.5375 78.5566 29.685 77.7312C28.0975 77.0229 26.44 76.6151 25.1325 76.6151C24.8575 76.6151 24.6075 76.6346 24.3875 76.6688C23.4725 76.8105 22.7175 77.2842 22.3175 77.9729C21.9975 78.52 21.945 79.1525 22.17 79.702C22.6175 80.7961 24.275 81.7778 24.9675 82.149C25.805 82.5984 27.265 83.966 28.1025 85.2848C28.73 86.2714 29.0275 86.9869 29.405 87.8905C29.6175 88.4009 29.85 88.9578 30.165 89.6293C30.9925 91.3853 33.5475 93.2242 34.9275 94.0326C36.8125 95.1364 40.3125 95.4441 42.2325 95.5272L42.51 95.5321C43.2575 95.5321 44.51 95.4222 46.2475 95.2024V102.961C46.2475 104.864 43.77 104.939 43.1625 104.939C43.085 104.939 44.42 105.389 44.42 105.389C49.3275 106.961 54.555 107.841 60 107.841C65.445 107.841 70.6725 106.961 75.5775 105.391C75.5775 105.391 77.03 104.893 76.9525 104.903Z" fill="black"/>
<path d="M91.86 57.3709C91.86 51.7295 89.905 47.0503 86.5675 43.3822C86.93 42.5885 87.3075 41.5237 87.495 40.1854C87.925 37.1327 87.4175 35.3011 86.9875 33.5086C86.5575 31.716 86.05 30.4559 86.05 30.4559C86.05 30.4559 83.745 30.2263 81.7925 30.8759C79.84 31.5255 78.16 32.0213 75.7375 33.4329C74.605 34.0922 73.465 34.8151 72.5625 35.4012C68.705 34.356 64.4625 33.8187 60 33.8187C55.4975 33.8187 51.2175 34.3584 47.3325 35.411C46.4275 34.8224 45.28 34.0947 44.14 33.4304C41.7175 32.0189 40.0375 31.5231 38.085 30.8735C36.1325 30.2239 33.8275 30.4534 33.8275 30.4534C33.8275 30.4534 33.32 31.7136 32.89 33.5061C32.46 35.2987 31.9525 37.1303 32.3825 40.183C32.575 41.5555 32.965 42.6398 33.3375 43.4384C30.0625 47.0845 28.1425 51.7344 28.1425 57.3685C28.1425 71.9799 36.2225 78.6494 50.945 80.4102C49.2275 82.1832 48.075 84.4544 47.6875 86.9821C46.72 87.3973 45.605 87.788 44.5325 87.9443C41.7725 88.3521 38.855 87.9443 37.45 87.1311C36.045 86.3178 34.3775 84.4862 33.1275 82.7034C32.0725 81.1991 30.55 79.4529 29.17 78.8375C27.3475 78.0242 25.575 77.719 24.5875 77.8704C23.5975 78.0242 23.13 78.7349 23.3375 79.2453C23.545 79.7533 24.535 80.5177 25.5775 81.0769C26.62 81.6362 28.235 83.1625 29.1725 84.6376C30.2175 86.2836 30.4225 87.2336 31.3075 89.1141C31.93 90.4377 34.06 92.0911 35.5775 92.98C36.88 93.7444 39.4825 94.1791 42.2975 94.3037C43.27 94.3476 45.5675 94.0692 47.505 93.8006V102.959C47.505 104.519 46.0425 105.706 44.5275 105.433C49.39 107.03 54.5825 107.841 60 107.841C65.415 107.841 70.6075 107.03 75.475 105.437C73.9625 105.709 72.5 104.522 72.5 102.961V88.7868C72.5 85.5412 71.1825 82.6082 69.0675 80.4224C83.6825 78.708 91.86 72.1973 91.86 57.3709ZM28.0975 80.3101C27.7125 80.1172 27.505 79.7606 27.635 79.5091C27.765 79.2575 28.185 79.2111 28.57 79.4041C28.955 79.597 29.1625 79.9535 29.0325 80.2051C28.9025 80.4566 28.4825 80.503 28.0975 80.3101ZM31.1275 82.1539C30.925 82.3688 30.49 82.3005 30.155 82.0025C29.82 81.7046 29.7125 81.287 29.915 81.0721C30.1175 80.8572 30.5525 80.9255 30.8875 81.2235C31.2225 81.5214 31.33 81.939 31.1275 82.1539ZM33.0125 85.2066C32.7575 85.3825 32.325 85.2188 32.0475 84.8403C31.77 84.4618 31.7525 84.01 32.0075 83.8341C32.2625 83.6583 32.695 83.8219 32.9725 84.2005C33.2475 84.579 33.2675 85.0308 33.0125 85.2066ZM35.72 87.5047C35.5475 87.7782 35.0575 87.7904 34.6275 87.534C34.1975 87.2776 33.9875 86.8478 34.16 86.5742C34.3325 86.3007 34.8225 86.2885 35.2525 86.5449C35.6825 86.8014 35.8925 87.2312 35.72 87.5047ZM38.28 89.7539C37.7475 89.6904 37.3525 89.3656 37.3975 89.0286C37.44 88.6916 37.9075 88.4718 38.4375 88.5353C38.97 88.5988 39.365 88.9236 39.32 89.2606C39.2775 89.5952 38.8125 89.8174 38.28 89.7539ZM42.4075 90.3376C41.84 90.3059 41.3975 89.9884 41.42 89.6318C41.4425 89.2753 41.92 89.0091 42.4875 89.0408C43.055 89.0726 43.4975 89.3901 43.475 89.7466C43.4525 90.1056 42.975 90.3694 42.4075 90.3376ZM46.3025 89.9566C45.6975 89.9566 45.2075 89.6489 45.2075 89.2704C45.2075 88.8919 45.6975 88.5841 46.3025 88.5841C46.9075 88.5841 47.3975 88.8919 47.3975 89.2704C47.3975 89.6489 46.905 89.9566 46.3025 89.9566Z" fill="white"/>
<defs>
<linearGradient id="paint0_linear_5_51" x1="10" y1="57.7958" x2="110" y2="57.7958" gradientUnits="userSpaceOnUse">
<stop stop-color="#4C4C4C"/>
<stop offset="1" stop-color="#343434"/>
</linearGradient>
</defs>
</svg>
