<svg width="120" height="118" viewBox="0 0 120 118" fill="none" xmlns="http://www.w3.org/2000/svg">
<path d="M17.8472 104.389L8.4675 1.62134H111.533L102.143 104.373L59.9372 115.803L17.8472 104.389Z" fill="#E44D26"/>
<path d="M60 107.067L94.1044 97.8299L102.128 10.0239H60V107.067Z" fill="#F16529"/>
<path d="M60 48.139H42.9262L41.7469 35.2315H60V22.6282H27.6459L27.9553 26.0093L31.1259 60.7433H60V48.139ZM60 80.8728L59.9428 80.8883L45.5737 77.0969L44.6559 67.0459H31.7025L33.51 86.8356L59.9409 94.0027L60 93.9872V80.8728Z" fill="#EBEBEB"/>
<path d="M59.955 48.139V60.7433H75.8428L74.3456 77.0896L59.955 80.8838V93.9972L86.4065 86.8356L86.6006 84.7063L89.6325 51.5238L89.9466 48.139H86.4703H59.955ZM59.955 22.6282V35.2315H91.1212L91.38 32.3999L91.9687 26.0093L92.2772 22.6282H59.955Z" fill="white"/>
</svg>
