<svg width="126" height="125" viewBox="0 0 126 125" fill="none" xmlns="http://www.w3.org/2000/svg">
<g filter="url(#filter0_d_5_42)">
<path d="M4.32001 1.43604H121.68V116.082H4.32001V1.43604Z" fill="#F0DB4F"/>
<path d="M112.075 88.7383C111.216 83.5081 107.724 79.115 97.3828 75.0186C93.7903 73.4058 89.7853 72.251 88.5919 69.5915C88.1681 68.0438 88.1119 67.1719 88.38 66.2351C89.1497 63.1946 92.865 62.2467 95.8097 63.1186C97.7062 63.7395 99.5016 65.1672 100.584 67.4448C105.649 64.2413 105.638 64.2624 109.175 62.0608C107.88 60.1 107.189 59.1952 106.342 58.3563C103.296 55.0329 99.1453 53.3212 92.5078 53.4522L89.0503 53.889C85.7372 54.7068 82.5797 56.4057 80.7281 58.6833C75.1725 64.8412 76.7569 75.6184 83.5172 80.0537C90.1772 84.9368 99.9609 86.0477 101.211 90.6139C102.427 96.204 97.005 98.0137 91.6162 97.3708C87.645 96.5639 85.4362 94.5922 83.0484 91.0068C78.6534 93.4914 78.6534 93.4914 74.1347 96.03C75.2062 98.3186 76.3322 99.3544 78.1284 101.337C86.6297 109.761 107.903 109.347 111.719 96.5969C111.874 96.1591 112.901 93.2395 112.075 88.7383ZM68.1206 54.1271H57.1434L57.0984 81.8505C57.0984 87.7465 57.4106 93.1516 56.4291 94.8083C54.8231 98.0668 50.6616 97.6629 48.765 97.031C46.8347 96.1042 45.8531 94.7863 44.7159 92.9236C44.4037 92.3888 44.1694 91.9748 44.0906 91.9428L35.1656 97.2819C36.6497 100.257 38.8359 102.84 41.6362 104.518C45.8194 106.97 51.4416 107.722 57.3216 106.403C61.1484 105.314 64.4503 103.059 66.1791 99.6255C68.6784 95.1243 68.1422 89.6761 68.1197 83.6501C68.1759 73.8189 68.1206 63.9895 68.1206 54.1271Z" fill="#323330"/>
</g>
<defs>
<filter id="filter0_d_5_42" x="-1" y="0.146606" width="128" height="125.224" filterUnits="userSpaceOnUse" color-interpolation-filters="sRGB">
<feFlood flood-opacity="0" result="BackgroundImageFix"/>
<feColorMatrix in="SourceAlpha" type="matrix" values="0 0 0 0 0 0 0 0 0 0 0 0 0 0 0 0 0 0 127 0" result="hardAlpha"/>
<feOffset dy="4"/>
<feGaussianBlur stdDeviation="2"/>
<feComposite in2="hardAlpha" operator="out"/>
<feColorMatrix type="matrix" values="0 0 0 0 0 0 0 0 0 0 0 0 0 0 0 0 0 0 0.25 0"/>
<feBlend mode="normal" in2="BackgroundImageFix" result="effect1_dropShadow_5_42"/>
<feBlend mode="normal" in="SourceGraphic" in2="effect1_dropShadow_5_42" result="shape"/>
</filter>
</defs>
</svg>
