<svg xmlns="http://www.w3.org/2000/svg" x="0px" y="0px" width="100" height="100" viewBox="0 0 64 64">
<linearGradient id="1dP_ejbheoOkMyPxlPY0Wa_MU45yL8cD9cF_gr1" x1="32" x2="32" y1="57" y2="7" gradientUnits="userSpaceOnUse"><stop offset="0" stop-color="#c822ff"></stop><stop offset="1" stop-color="#1a6dff"></stop></linearGradient><path fill="none" stroke="url(#1dP_ejbheoOkMyPxlPY0Wa)" stroke-miterlimit="10" stroke-width="2" d="M18.4,8h27.2C51.344,8,56,12.656,56,18.4	v27.2C56,51.344,51.344,56,45.6,56H18.4C12.656,56,8,51.344,8,45.6V18.4C8,12.656,12.656,8,18.4,8z"></path><linearGradient id="1dP_ejbheoOkMyPxlPY0Wb_MU45yL8cD9cF_gr2" x1="33" x2="33" y1="50" y2="14" gradientUnits="userSpaceOnUse"><stop offset="0" stop-color="#e6abff"></stop><stop offset="1" stop-color="#6dc7ff"></stop></linearGradient><path fill="url(#1dP_ejbheoOkMyPxlPY0Wb_MU45yL8cD9cF_gr2)" fill-rule="evenodd" d="M41.341,14h-5.268l4.39,7.714L30.805,14h-5.268	l4.829,9.429L20.268,14H15l5.268,12L15,50h5.268l10.098-25.714L25.537,50h5.268l9.659-27.429L36.073,50h5.268L51,20L41.341,14z" clip-rule="evenodd"></path>
</svg>