<svg width="120" height="118" viewBox="0 0 120 118" fill="none" xmlns="http://www.w3.org/2000/svg">
<path d="M60 69.2218C65.9025 69.2218 70.6875 64.5475 70.6875 58.7815C70.6875 53.0156 65.9025 48.3413 60 48.3413C54.0975 48.3413 49.3125 53.0156 49.3125 58.7815C49.3125 64.5475 54.0975 69.2218 60 69.2218Z" fill="#61DAFB"/>
<path d="M100.594 41.5643C98.5312 40.8317 96.375 40.099 94.125 39.458C94.6875 37.26 95.1562 35.0621 95.5312 32.9557C97.5 20.867 95.3438 12.35 89.3438 9.05306C87.5625 8.04567 85.5938 7.58777 83.3438 7.58777C76.7812 7.58777 68.4375 12.35 60 20.3175C51.5625 12.35 43.2187 7.58777 36.6562 7.58777C34.4062 7.58777 32.4375 8.04567 30.6563 9.05306C24.6563 12.4416 22.5 20.9586 24.4688 32.9557C24.8438 35.0621 25.3125 37.26 25.875 39.458C23.625 40.099 21.4688 40.7401 19.4063 41.5643C7.6875 45.9602 1.3125 52.0045 1.3125 58.7815C1.3125 65.5585 7.78125 71.6029 19.4063 75.9988C21.4688 76.7314 23.625 77.4641 25.875 78.1051C25.3125 80.3031 24.8438 82.501 24.4688 84.6074C22.5 96.6961 24.6563 105.213 30.6563 108.51C32.4375 109.517 34.4062 109.975 36.6562 109.975C43.3125 109.975 51.6562 105.213 60 97.2455C68.4375 105.213 76.7812 109.975 83.3438 109.975C85.5938 109.975 87.5625 109.517 89.3438 108.51C95.3438 105.122 97.5 96.6045 95.5312 84.6074C95.1562 82.501 94.6875 80.3031 94.125 78.1051C96.375 77.4641 98.5312 76.823 100.594 75.9988C112.312 71.6029 118.688 65.5585 118.688 58.7815C118.688 52.0045 112.312 45.9602 100.594 41.5643ZM86.7188 13.6321C90.5625 15.8301 91.875 22.607 90.2812 32.2231C90 34.1463 89.5312 36.161 88.9688 38.2674C84.0938 37.1684 78.9375 36.4358 73.5 35.9779C70.3125 31.582 67.0312 27.644 63.75 24.0723C70.6875 17.3869 77.7188 12.8079 83.4375 12.8079C84.6562 12.8079 85.7812 13.0826 86.7188 13.6321ZM76.2188 67.9396C74.5312 70.8702 72.5625 73.8008 70.5 76.7314C67.0312 77.0061 63.5625 77.0977 60 77.0977C56.3438 77.0977 52.875 77.0061 49.5 76.7314C47.4375 73.8008 45.5625 70.8702 43.875 67.9396C42.0937 64.9175 40.4062 61.8037 38.9062 58.7815C40.4062 55.7594 42.0937 52.6456 43.875 49.6234C45.5625 46.6928 47.5312 43.7623 49.5938 40.8317C53.0625 40.5569 56.5312 40.4653 60.0937 40.4653C63.75 40.4653 67.2188 40.5569 70.5938 40.8317C72.6562 43.7623 74.5312 46.6928 76.2188 49.6234C78 52.6456 79.6875 55.7594 81.1875 58.7815C79.5938 61.8037 78 64.8259 76.2188 67.9396ZM84 64.9175C85.4062 68.1228 86.5312 71.2365 87.5625 74.3503C84.375 75.0829 81 75.6324 77.4375 76.0903C78.5625 74.3503 79.7812 72.5187 80.8125 70.5955C81.9375 68.6723 82.9688 66.7491 84 64.9175ZM60 89.7359C57.75 87.3548 55.5937 84.7905 53.5312 82.1347C55.6875 82.2263 57.8438 82.3178 60 82.3178C62.1562 82.3178 64.3125 82.2263 66.4688 82.1347C64.4062 84.7905 62.25 87.3548 60 89.7359ZM42.5625 75.9988C39 75.5409 35.625 74.9914 32.4375 74.2587C33.4687 71.2365 34.5938 68.0312 36 64.8259C37.0312 66.6575 38.0625 68.5807 39.1875 70.4123C40.3125 72.4271 41.4375 74.1671 42.5625 75.9988ZM36 52.6456C34.5938 49.4403 33.4687 46.3265 32.4375 43.2128C35.625 42.4801 39 41.9306 42.5625 41.4727C41.4375 43.2128 40.2187 45.0444 39.1875 46.9676C38.0625 48.8908 37.0312 50.814 36 52.6456ZM60 27.8272C62.25 30.2083 64.4062 32.7725 66.4688 35.4284C64.3125 35.3368 62.1562 35.2452 60 35.2452C57.8438 35.2452 55.6875 35.3368 53.5312 35.4284C55.5937 32.7725 57.75 30.2083 60 27.8272ZM80.8125 47.0592L77.4375 41.5643C81 42.0222 84.375 42.5717 87.5625 43.3043C86.5312 46.3265 85.4062 49.5319 84 52.7372C82.9688 50.814 81.9375 48.8908 80.8125 47.0592ZM29.7188 32.2231C28.125 22.607 29.4375 15.8301 33.2812 13.6321C34.2188 13.0826 35.3438 12.8079 36.5625 12.8079C42.1875 12.8079 49.2188 17.2954 56.25 24.0723C52.9688 27.5524 49.6875 31.582 46.5 35.9779C41.0625 36.4358 35.9062 37.26 31.0312 38.2674C30.4687 36.161 30.0938 34.1463 29.7188 32.2231ZM6.5625 58.7815C6.5625 54.4772 11.9063 49.8982 21.2813 46.5097C23.1563 45.777 25.2188 45.136 27.2812 44.5865C28.7812 49.1655 30.6562 54.0193 32.9062 58.8731C30.6562 63.7269 28.6875 68.4891 27.2812 73.0682C14.3438 69.4049 6.5625 63.9101 6.5625 58.7815ZM33.2812 103.931C29.4375 101.733 28.125 94.956 29.7188 85.34C30 83.4168 30.4687 81.402 31.0312 79.2957C35.9062 80.3946 41.0625 81.1273 46.5 81.5852C49.6875 85.9811 52.9688 89.9191 56.25 93.4907C49.3125 100.176 42.2812 104.755 36.5625 104.755C35.3438 104.755 34.2188 104.48 33.2812 103.931ZM90.2812 85.34C91.875 94.956 90.5625 101.733 86.7188 103.931C85.7812 104.48 84.6562 104.755 83.4375 104.755C77.8125 104.755 70.7812 100.268 63.75 93.4907C67.0312 90.0107 70.3125 85.9811 73.5 81.5852C78.9375 81.1273 84.0938 80.3031 88.9688 79.2957C89.5312 81.402 89.9062 83.4168 90.2812 85.34ZM98.7188 71.0534C96.8438 71.786 94.7812 72.4271 92.7188 72.9766C91.2188 68.3975 89.3438 63.5437 87.0938 58.69C89.3438 53.8362 91.3125 49.074 92.7188 44.4949C105.656 48.1581 113.438 53.653 113.438 58.7815C113.438 63.0858 108 67.6649 98.7188 71.0534Z" fill="#61DAFB"/>
</svg>
