<svg width="0" height="0" class="hidden">
  <symbol xmlns="http://www.w3.org/2000/svg" x="0px" y="0px" viewBox="0 0 48 48" id="css">
    <path fill="#0277BD" d="M41,5H7l3,34l14,4l14-4L41,5L41,5z"></path>
    <path fill="#039BE5" d="M24 8L24 39.9 35.2 36.7 37.7 8z"></path>
    <path fill="#FFF" d="M33.1 13L24 13 24 17 28.9 17 28.6 21 24 21 24 25 28.4 25 28.1 29.5 24 30.9 24 35.1 31.9 32.5 32.6 21 32.6 21z"></path>
    <path fill="#EEE" d="M24,13v4h-8.9l-0.3-4H24z M19.4,21l0.2,4H24v-4H19.4z M19.8,27h-4l0.3,5.5l7.9,2.6v-4.2l-4.1-1.4L19.8,27z"></path>
  </symbol>
  <symbol xmlns="http://www.w3.org/2000/svg" x="0px" y="0px" viewBox="0 0 48 48" id="figma">
    <path fill="#e64a19" d="M26,17h-8c-3.866,0-7-3.134-7-7v0c0-3.866,3.134-7,7-7h8V17z"></path>
    <path fill="#7c4dff" d="M25,31h-7c-3.866,0-7-3.134-7-7v0c0-3.866,3.134-7,7-7h7V31z"></path>
    <path fill="#66bb6a" d="M18,45L18,45c-3.866,0-7-3.134-7-7v0c0-3.866,3.134-7,7-7h7v7C25,41.866,21.866,45,18,45z"></path>
    <path fill="#ff7043" d="M32,17h-7V3h7c3.866,0,7,3.134,7,7v0C39,13.866,35.866,17,32,17z"></path>
    <circle cx="32" cy="24" r="7" fill="#29b6f6"></circle>
  </symbol>
  <symbol fill="none" xmlns="http://www.w3.org/2000/svg" viewBox="0 0 120 118" id="git">
    <path d="M116.941 53.8718L65.2697 3.39786C62.2959 0.491078 57.4697 0.491078 54.4912 3.39786L43.7625 13.8802L57.3731 27.1759C60.5372 26.1328 64.1634 26.8325 66.6844 29.2951C69.2184 31.7733 69.9291 35.3459 68.835 38.4468L81.9525 51.2617C85.1259 50.193 88.7887 50.8835 91.3219 53.3635C94.8656 56.8225 94.8656 62.43 91.3219 65.8909C90.4797 66.7139 89.4798 67.3669 88.3793 67.8123C87.2788 68.2578 86.0992 68.487 84.908 68.487C83.7167 68.487 82.5371 68.2578 81.4366 67.8123C80.3361 67.3669 79.3362 66.7139 78.4941 65.8909C77.2288 64.6541 76.3663 63.0794 76.0152 61.3649C75.664 59.6504 75.8399 57.8727 76.5206 56.2557L64.2881 44.3062L64.2862 75.756C65.1738 76.1829 65.9841 76.7484 66.6853 77.4301C70.2272 80.8891 70.2272 86.4948 66.6853 89.9611C63.1425 93.4201 57.4003 93.4201 53.8612 89.9611C50.3194 86.4957 50.3194 80.89 53.8612 77.4301C54.7098 76.5998 55.7191 75.9429 56.8303 75.4977V43.7567C55.7182 43.3127 54.7086 42.6553 53.8612 41.8234C51.1781 39.2042 50.5322 35.3578 51.9084 32.1378L38.49 19.0298L3.06 53.6383C1.63061 55.035 0.827621 56.9292 0.827621 58.9042C0.827621 60.8792 1.63061 62.7733 3.06 64.1701L54.7322 114.644C57.7078 117.551 62.5322 117.551 65.5125 114.644L116.942 64.4045C118.371 63.0074 119.174 61.1131 119.173 59.138C119.173 57.1629 118.37 55.2687 116.941 53.8718Z" fill="#F34F29"></path>
  </symbol>
  <symbol fill="none" xmlns="http://www.w3.org/2000/svg" viewBox="0 0 120 118" id="github">
    <path d="M60 10.1542C32.385 10.1542 10 32.0213 10 58.9974C10 80.7008 24.5025 99.0756 44.55 105.437H75.45C95.4975 99.0756 110 80.7008 110 58.9974C110 32.0213 87.615 10.1542 60 10.1542Z" fill="url(#paint0_linear_5_51)"></path>
    <path opacity="0.05" d="M75.025 102.946L75 88.7868C75 86.4936 74.45 84.2542 73.395 82.2248C87.4975 79.4578 94.36 71.3132 94.36 57.3709C94.36 51.8638 92.6975 47.0015 89.42 42.9133C89.67 42.1391 89.855 41.3381 89.97 40.5175C90.44 37.1742 89.9125 34.9885 89.4875 33.2301L89.42 32.9468C88.955 31.0029 88.3975 29.6157 88.375 29.5571L88.0975 28.8684L87.82 28.1798L87.065 28.1016L86.3075 28.0235C86.3075 28.0235 85.81 27.9722 85.055 27.9722C84.0075 27.9722 82.455 28.0747 80.9875 28.5607L80.4975 28.7219C78.6475 29.33 76.9 29.9064 74.455 31.3326C73.74 31.7502 72.9575 32.2264 72.12 32.7588C68.335 31.843 64.2625 31.3765 60 31.3765C55.695 31.3765 51.5875 31.8454 47.7775 32.771C46.93 32.2337 46.1425 31.7526 45.4225 31.3326C42.9775 29.9064 41.23 29.3325 39.38 28.7219L38.89 28.5607C37.4275 28.0747 35.8725 27.9722 34.825 27.9722C34.07 27.9722 33.5725 28.0235 33.5725 28.0235L32.8175 28.1016L32.0675 28.1773L31.7875 28.8636L31.505 29.5547C31.48 29.6182 30.9225 31.0053 30.4575 32.9517L30.39 33.2326C29.965 34.9885 29.4375 37.1767 29.9075 40.5175C30.0275 41.3625 30.22 42.1904 30.4825 42.9866C27.27 47.0552 25.6425 51.8907 25.6425 57.3709C25.6425 71.279 32.5125 79.4187 46.635 82.2077C46.15 83.1552 45.7725 84.1565 45.505 85.1969C45.0125 85.3605 44.56 85.4704 44.16 85.5314C43.565 85.6194 42.9425 85.6633 42.3125 85.6633C40.5975 85.6633 39.25 85.3361 38.725 85.0308C37.9425 84.5765 36.545 83.2553 35.19 81.3236C34.0325 79.6751 32.2275 77.5187 30.21 76.6175C28.465 75.8385 26.6175 75.3916 25.1375 75.3916C24.7925 75.3916 24.475 75.416 24.1975 75.46C22.905 75.6602 21.825 76.3538 21.2375 77.3648C20.73 78.2367 20.65 79.2526 21.0175 80.1513C21.565 81.4897 23.145 82.5569 24.375 83.2163C24.98 83.5411 26.2875 84.728 27.05 85.9246C27.6225 86.8233 27.8875 87.4632 28.255 88.3472C28.4725 88.8723 28.7125 89.4438 29.0375 90.1349C30.2125 92.6308 33.88 94.8336 34.295 95.0754C36.31 96.255 39.6975 96.6335 42.1875 96.7434L42.495 96.7507H42.4975C43.0975 96.7507 43.9225 96.6945 45.0075 96.5773V102.959C45.0125 104.251 43.665 104.544 41.8825 104.517L43.25 104.966C48.4875 106.795 54.1125 107.841 60 107.841C65.8875 107.841 71.5125 106.795 76.7575 104.969L78.515 104.329C76.7375 104.27 75.04 103.987 75.025 102.946Z" fill="black"></path>
    <path opacity="0.07" d="M76.9525 104.903C75.9375 105.017 73.75 104.636 73.75 102.961V88.7868C73.75 86.1151 72.93 83.5337 71.41 81.3333C86.1975 78.9962 93.1075 71.3376 93.1075 57.3709C93.1075 51.9078 91.3925 47.1285 88.01 43.1526C88.3525 42.2612 88.5925 41.321 88.73 40.3515C89.1675 37.2353 88.69 35.2571 88.27 33.511L88.2025 33.2277C87.7575 31.3692 87.2325 30.0602 87.21 30.0065L86.9325 29.3178L86.175 29.2396C86.175 29.2396 85.73 29.1932 85.0525 29.1932C84.1 29.1932 82.6925 29.2836 81.3875 29.7183L80.8975 29.8795C79.1125 30.468 77.425 31.0224 75.095 32.3803C74.265 32.8638 73.34 33.4328 72.3425 34.0751C68.51 33.0958 64.3625 32.5976 60 32.5976C55.595 32.5976 51.4125 33.0983 47.5525 34.0873C46.545 33.4402 45.615 32.8687 44.78 32.3803C42.45 31.0224 40.7625 30.4656 38.9775 29.8795L38.4875 29.7183C37.185 29.286 35.775 29.1932 34.8225 29.1932C34.145 29.1932 33.7 29.2396 33.7 29.2396L32.945 29.3178L32.6625 30.0089C32.64 30.0626 32.115 31.3716 31.67 33.2301L31.6025 33.5134C31.18 35.2596 30.7025 37.2353 31.1425 40.3515C31.2825 41.3454 31.5325 42.3076 31.8875 43.2186C28.57 47.1749 26.89 51.9297 26.89 57.3709C26.89 71.2985 33.805 78.9547 48.605 81.3187C47.6175 82.7596 46.9275 84.3836 46.5725 86.1151C45.7475 86.4326 45 86.6426 44.345 86.7403C43.6875 86.838 43.0025 86.8868 42.31 86.8868C40.585 86.8868 38.9275 86.5718 38.085 86.0833C36.985 85.4459 35.4425 83.8512 34.155 82.0171C33.28 80.7716 31.5375 78.5566 29.685 77.7312C28.0975 77.0229 26.44 76.6151 25.1325 76.6151C24.8575 76.6151 24.6075 76.6346 24.3875 76.6688C23.4725 76.8105 22.7175 77.2842 22.3175 77.9729C21.9975 78.52 21.945 79.1525 22.17 79.702C22.6175 80.7961 24.275 81.7778 24.9675 82.149C25.805 82.5984 27.265 83.966 28.1025 85.2848C28.73 86.2714 29.0275 86.9869 29.405 87.8905C29.6175 88.4009 29.85 88.9578 30.165 89.6293C30.9925 91.3853 33.5475 93.2242 34.9275 94.0326C36.8125 95.1364 40.3125 95.4441 42.2325 95.5272L42.51 95.5321C43.2575 95.5321 44.51 95.4222 46.2475 95.2024V102.961C46.2475 104.864 43.77 104.939 43.1625 104.939C43.085 104.939 44.42 105.389 44.42 105.389C49.3275 106.961 54.555 107.841 60 107.841C65.445 107.841 70.6725 106.961 75.5775 105.391C75.5775 105.391 77.03 104.893 76.9525 104.903Z" fill="black"></path>
    <path d="M91.86 57.3709C91.86 51.7295 89.905 47.0503 86.5675 43.3822C86.93 42.5885 87.3075 41.5237 87.495 40.1854C87.925 37.1327 87.4175 35.3011 86.9875 33.5086C86.5575 31.716 86.05 30.4559 86.05 30.4559C86.05 30.4559 83.745 30.2263 81.7925 30.8759C79.84 31.5255 78.16 32.0213 75.7375 33.4329C74.605 34.0922 73.465 34.8151 72.5625 35.4012C68.705 34.356 64.4625 33.8187 60 33.8187C55.4975 33.8187 51.2175 34.3584 47.3325 35.411C46.4275 34.8224 45.28 34.0947 44.14 33.4304C41.7175 32.0189 40.0375 31.5231 38.085 30.8735C36.1325 30.2239 33.8275 30.4534 33.8275 30.4534C33.8275 30.4534 33.32 31.7136 32.89 33.5061C32.46 35.2987 31.9525 37.1303 32.3825 40.183C32.575 41.5555 32.965 42.6398 33.3375 43.4384C30.0625 47.0845 28.1425 51.7344 28.1425 57.3685C28.1425 71.9799 36.2225 78.6494 50.945 80.4102C49.2275 82.1832 48.075 84.4544 47.6875 86.9821C46.72 87.3973 45.605 87.788 44.5325 87.9443C41.7725 88.3521 38.855 87.9443 37.45 87.1311C36.045 86.3178 34.3775 84.4862 33.1275 82.7034C32.0725 81.1991 30.55 79.4529 29.17 78.8375C27.3475 78.0242 25.575 77.719 24.5875 77.8704C23.5975 78.0242 23.13 78.7349 23.3375 79.2453C23.545 79.7533 24.535 80.5177 25.5775 81.0769C26.62 81.6362 28.235 83.1625 29.1725 84.6376C30.2175 86.2836 30.4225 87.2336 31.3075 89.1141C31.93 90.4377 34.06 92.0911 35.5775 92.98C36.88 93.7444 39.4825 94.1791 42.2975 94.3037C43.27 94.3476 45.5675 94.0692 47.505 93.8006V102.959C47.505 104.519 46.0425 105.706 44.5275 105.433C49.39 107.03 54.5825 107.841 60 107.841C65.415 107.841 70.6075 107.03 75.475 105.437C73.9625 105.709 72.5 104.522 72.5 102.961V88.7868C72.5 85.5412 71.1825 82.6082 69.0675 80.4224C83.6825 78.708 91.86 72.1973 91.86 57.3709ZM28.0975 80.3101C27.7125 80.1172 27.505 79.7606 27.635 79.5091C27.765 79.2575 28.185 79.2111 28.57 79.4041C28.955 79.597 29.1625 79.9535 29.0325 80.2051C28.9025 80.4566 28.4825 80.503 28.0975 80.3101ZM31.1275 82.1539C30.925 82.3688 30.49 82.3005 30.155 82.0025C29.82 81.7046 29.7125 81.287 29.915 81.0721C30.1175 80.8572 30.5525 80.9255 30.8875 81.2235C31.2225 81.5214 31.33 81.939 31.1275 82.1539ZM33.0125 85.2066C32.7575 85.3825 32.325 85.2188 32.0475 84.8403C31.77 84.4618 31.7525 84.01 32.0075 83.8341C32.2625 83.6583 32.695 83.8219 32.9725 84.2005C33.2475 84.579 33.2675 85.0308 33.0125 85.2066ZM35.72 87.5047C35.5475 87.7782 35.0575 87.7904 34.6275 87.534C34.1975 87.2776 33.9875 86.8478 34.16 86.5742C34.3325 86.3007 34.8225 86.2885 35.2525 86.5449C35.6825 86.8014 35.8925 87.2312 35.72 87.5047ZM38.28 89.7539C37.7475 89.6904 37.3525 89.3656 37.3975 89.0286C37.44 88.6916 37.9075 88.4718 38.4375 88.5353C38.97 88.5988 39.365 88.9236 39.32 89.2606C39.2775 89.5952 38.8125 89.8174 38.28 89.7539ZM42.4075 90.3376C41.84 90.3059 41.3975 89.9884 41.42 89.6318C41.4425 89.2753 41.92 89.0091 42.4875 89.0408C43.055 89.0726 43.4975 89.3901 43.475 89.7466C43.4525 90.1056 42.975 90.3694 42.4075 90.3376ZM46.3025 89.9566C45.6975 89.9566 45.2075 89.6489 45.2075 89.2704C45.2075 88.8919 45.6975 88.5841 46.3025 88.5841C46.9075 88.5841 47.3975 88.8919 47.3975 89.2704C47.3975 89.6489 46.905 89.9566 46.3025 89.9566Z" fill="white"></path>
    <defs>
      <linearGradient id="paint0_linear_5_51" x1="10" y1="57.7958" x2="110" y2="57.7958" gradientUnits="userSpaceOnUse">
        <stop stop-color="#4C4C4C"></stop>
        <stop offset="1" stop-color="#343434"></stop>
      </linearGradient>
    </defs>
  </symbol>
  <symbol fill="none" xmlns="http://www.w3.org/2000/svg" viewBox="0 0 120 118" id="html">
    <path d="M17.8472 104.389L8.4675 1.62134H111.533L102.143 104.373L59.9372 115.803L17.8472 104.389Z" fill="#E44D26"></path>
    <path d="M60 107.067L94.1044 97.8299L102.128 10.0239H60V107.067Z" fill="#F16529"></path>
    <path d="M60 48.139H42.9262L41.7469 35.2315H60V22.6282H27.6459L27.9553 26.0093L31.1259 60.7433H60V48.139ZM60 80.8728L59.9428 80.8883L45.5737 77.0969L44.6559 67.0459H31.7025L33.51 86.8356L59.9409 94.0027L60 93.9872V80.8728Z" fill="#EBEBEB"></path>
    <path d="M59.955 48.139V60.7433H75.8428L74.3456 77.0896L59.955 80.8838V93.9972L86.4065 86.8356L86.6006 84.7063L89.6325 51.5238L89.9466 48.139H86.4703H59.955ZM59.955 22.6282V35.2315H91.1212L91.38 32.3999L91.9687 26.0093L92.2772 22.6282H59.955Z" fill="white"></path>
  </symbol>
  <symbol fill="none" xmlns="http://www.w3.org/2000/svg" viewBox="0 0 126 125" id="js">
    <g filter="url(#filter0_d_5_42)">
      <path d="M4.32001 1.43604H121.68V116.082H4.32001V1.43604Z" fill="#F0DB4F"></path>
      <path d="M112.075 88.7383C111.216 83.5081 107.724 79.115 97.3828 75.0186C93.7903 73.4058 89.7853 72.251 88.5919 69.5915C88.1681 68.0438 88.1119 67.1719 88.38 66.2351C89.1497 63.1946 92.865 62.2467 95.8097 63.1186C97.7062 63.7395 99.5016 65.1672 100.584 67.4448C105.649 64.2413 105.638 64.2624 109.175 62.0608C107.88 60.1 107.189 59.1952 106.342 58.3563C103.296 55.0329 99.1453 53.3212 92.5078 53.4522L89.0503 53.889C85.7372 54.7068 82.5797 56.4057 80.7281 58.6833C75.1725 64.8412 76.7569 75.6184 83.5172 80.0537C90.1772 84.9368 99.9609 86.0477 101.211 90.6139C102.427 96.204 97.005 98.0137 91.6162 97.3708C87.645 96.5639 85.4362 94.5922 83.0484 91.0068C78.6534 93.4914 78.6534 93.4914 74.1347 96.03C75.2062 98.3186 76.3322 99.3544 78.1284 101.337C86.6297 109.761 107.903 109.347 111.719 96.5969C111.874 96.1591 112.901 93.2395 112.075 88.7383ZM68.1206 54.1271H57.1434L57.0984 81.8505C57.0984 87.7465 57.4106 93.1516 56.4291 94.8083C54.8231 98.0668 50.6616 97.6629 48.765 97.031C46.8347 96.1042 45.8531 94.7863 44.7159 92.9236C44.4037 92.3888 44.1694 91.9748 44.0906 91.9428L35.1656 97.2819C36.6497 100.257 38.8359 102.84 41.6362 104.518C45.8194 106.97 51.4416 107.722 57.3216 106.403C61.1484 105.314 64.4503 103.059 66.1791 99.6255C68.6784 95.1243 68.1422 89.6761 68.1197 83.6501C68.1759 73.8189 68.1206 63.9895 68.1206 54.1271Z" fill="#323330"></path>
    </g>
    <defs>
      <filter id="filter0_d_5_42" x="-1" y="0.146606" width="128" height="125.224" filterUnits="userSpaceOnUse" color-interpolation-filters="sRGB">
        <feFlood flood-opacity="0" result="BackgroundImageFix"></feFlood>
        <feColorMatrix in="SourceAlpha" type="matrix" values="0 0 0 0 0 0 0 0 0 0 0 0 0 0 0 0 0 0 127 0" result="hardAlpha"></feColorMatrix>
        <feOffset dy="4"></feOffset>
        <feGaussianBlur stdDeviation="2"></feGaussianBlur>
        <feComposite in2="hardAlpha" operator="out"></feComposite>
        <feColorMatrix type="matrix" values="0 0 0 0 0 0 0 0 0 0 0 0 0 0 0 0 0 0 0.25 0"></feColorMatrix>
        <feBlend mode="normal" in2="BackgroundImageFix" result="effect1_dropShadow_5_42"></feBlend>
        <feBlend mode="normal" in="SourceGraphic" in2="effect1_dropShadow_5_42" result="shape"></feBlend>
      </filter>
    </defs>
  </symbol>
  <symbol xmlns="http://www.w3.org/2000/svg" x="0px" y="0px" viewBox="0 0 64 64" id="miro">
    <linearGradient id="1dP_ejbheoOkMyPxlPY0Wa_MU45yL8cD9cF_gr1" x1="32" x2="32" y1="57" y2="7" gradientUnits="userSpaceOnUse">
      <stop offset="0" stop-color="#c822ff"></stop>
      <stop offset="1" stop-color="#1a6dff"></stop>
    </linearGradient>
    <path fill="none" stroke="url(#1dP_ejbheoOkMyPxlPY0Wa)" stroke-miterlimit="10" stroke-width="2" d="M18.4,8h27.2C51.344,8,56,12.656,56,18.4	v27.2C56,51.344,51.344,56,45.6,56H18.4C12.656,56,8,51.344,8,45.6V18.4C8,12.656,12.656,8,18.4,8z"></path>
    <linearGradient id="1dP_ejbheoOkMyPxlPY0Wb_MU45yL8cD9cF_gr2" x1="33" x2="33" y1="50" y2="14" gradientUnits="userSpaceOnUse">
      <stop offset="0" stop-color="#e6abff"></stop>
      <stop offset="1" stop-color="#6dc7ff"></stop>
    </linearGradient>
    <path fill="url(#1dP_ejbheoOkMyPxlPY0Wb_MU45yL8cD9cF_gr2)" fill-rule="evenodd" d="M41.341,14h-5.268l4.39,7.714L30.805,14h-5.268	l4.829,9.429L20.268,14H15l5.268,12L15,50h5.268l10.098-25.714L25.537,50h5.268l9.659-27.429L36.073,50h5.268L51,20L41.341,14z" clip-rule="evenodd"></path>
  </symbol>
  <symbol fill="none" xmlns="http://www.w3.org/2000/svg" viewBox="0 0 120 118" id="react">
    <path d="M60 69.2218C65.9025 69.2218 70.6875 64.5475 70.6875 58.7815C70.6875 53.0156 65.9025 48.3413 60 48.3413C54.0975 48.3413 49.3125 53.0156 49.3125 58.7815C49.3125 64.5475 54.0975 69.2218 60 69.2218Z" fill="#61DAFB"></path>
    <path d="M100.594 41.5643C98.5312 40.8317 96.375 40.099 94.125 39.458C94.6875 37.26 95.1562 35.0621 95.5312 32.9557C97.5 20.867 95.3438 12.35 89.3438 9.05306C87.5625 8.04567 85.5938 7.58777 83.3438 7.58777C76.7812 7.58777 68.4375 12.35 60 20.3175C51.5625 12.35 43.2187 7.58777 36.6562 7.58777C34.4062 7.58777 32.4375 8.04567 30.6563 9.05306C24.6563 12.4416 22.5 20.9586 24.4688 32.9557C24.8438 35.0621 25.3125 37.26 25.875 39.458C23.625 40.099 21.4688 40.7401 19.4063 41.5643C7.6875 45.9602 1.3125 52.0045 1.3125 58.7815C1.3125 65.5585 7.78125 71.6029 19.4063 75.9988C21.4688 76.7314 23.625 77.4641 25.875 78.1051C25.3125 80.3031 24.8438 82.501 24.4688 84.6074C22.5 96.6961 24.6563 105.213 30.6563 108.51C32.4375 109.517 34.4062 109.975 36.6562 109.975C43.3125 109.975 51.6562 105.213 60 97.2455C68.4375 105.213 76.7812 109.975 83.3438 109.975C85.5938 109.975 87.5625 109.517 89.3438 108.51C95.3438 105.122 97.5 96.6045 95.5312 84.6074C95.1562 82.501 94.6875 80.3031 94.125 78.1051C96.375 77.4641 98.5312 76.823 100.594 75.9988C112.312 71.6029 118.688 65.5585 118.688 58.7815C118.688 52.0045 112.312 45.9602 100.594 41.5643ZM86.7188 13.6321C90.5625 15.8301 91.875 22.607 90.2812 32.2231C90 34.1463 89.5312 36.161 88.9688 38.2674C84.0938 37.1684 78.9375 36.4358 73.5 35.9779C70.3125 31.582 67.0312 27.644 63.75 24.0723C70.6875 17.3869 77.7188 12.8079 83.4375 12.8079C84.6562 12.8079 85.7812 13.0826 86.7188 13.6321ZM76.2188 67.9396C74.5312 70.8702 72.5625 73.8008 70.5 76.7314C67.0312 77.0061 63.5625 77.0977 60 77.0977C56.3438 77.0977 52.875 77.0061 49.5 76.7314C47.4375 73.8008 45.5625 70.8702 43.875 67.9396C42.0937 64.9175 40.4062 61.8037 38.9062 58.7815C40.4062 55.7594 42.0937 52.6456 43.875 49.6234C45.5625 46.6928 47.5312 43.7623 49.5938 40.8317C53.0625 40.5569 56.5312 40.4653 60.0937 40.4653C63.75 40.4653 67.2188 40.5569 70.5938 40.8317C72.6562 43.7623 74.5312 46.6928 76.2188 49.6234C78 52.6456 79.6875 55.7594 81.1875 58.7815C79.5938 61.8037 78 64.8259 76.2188 67.9396ZM84 64.9175C85.4062 68.1228 86.5312 71.2365 87.5625 74.3503C84.375 75.0829 81 75.6324 77.4375 76.0903C78.5625 74.3503 79.7812 72.5187 80.8125 70.5955C81.9375 68.6723 82.9688 66.7491 84 64.9175ZM60 89.7359C57.75 87.3548 55.5937 84.7905 53.5312 82.1347C55.6875 82.2263 57.8438 82.3178 60 82.3178C62.1562 82.3178 64.3125 82.2263 66.4688 82.1347C64.4062 84.7905 62.25 87.3548 60 89.7359ZM42.5625 75.9988C39 75.5409 35.625 74.9914 32.4375 74.2587C33.4687 71.2365 34.5938 68.0312 36 64.8259C37.0312 66.6575 38.0625 68.5807 39.1875 70.4123C40.3125 72.4271 41.4375 74.1671 42.5625 75.9988ZM36 52.6456C34.5938 49.4403 33.4687 46.3265 32.4375 43.2128C35.625 42.4801 39 41.9306 42.5625 41.4727C41.4375 43.2128 40.2187 45.0444 39.1875 46.9676C38.0625 48.8908 37.0312 50.814 36 52.6456ZM60 27.8272C62.25 30.2083 64.4062 32.7725 66.4688 35.4284C64.3125 35.3368 62.1562 35.2452 60 35.2452C57.8438 35.2452 55.6875 35.3368 53.5312 35.4284C55.5937 32.7725 57.75 30.2083 60 27.8272ZM80.8125 47.0592L77.4375 41.5643C81 42.0222 84.375 42.5717 87.5625 43.3043C86.5312 46.3265 85.4062 49.5319 84 52.7372C82.9688 50.814 81.9375 48.8908 80.8125 47.0592ZM29.7188 32.2231C28.125 22.607 29.4375 15.8301 33.2812 13.6321C34.2188 13.0826 35.3438 12.8079 36.5625 12.8079C42.1875 12.8079 49.2188 17.2954 56.25 24.0723C52.9688 27.5524 49.6875 31.582 46.5 35.9779C41.0625 36.4358 35.9062 37.26 31.0312 38.2674C30.4687 36.161 30.0938 34.1463 29.7188 32.2231ZM6.5625 58.7815C6.5625 54.4772 11.9063 49.8982 21.2813 46.5097C23.1563 45.777 25.2188 45.136 27.2812 44.5865C28.7812 49.1655 30.6562 54.0193 32.9062 58.8731C30.6562 63.7269 28.6875 68.4891 27.2812 73.0682C14.3438 69.4049 6.5625 63.9101 6.5625 58.7815ZM33.2812 103.931C29.4375 101.733 28.125 94.956 29.7188 85.34C30 83.4168 30.4687 81.402 31.0312 79.2957C35.9062 80.3946 41.0625 81.1273 46.5 81.5852C49.6875 85.9811 52.9688 89.9191 56.25 93.4907C49.3125 100.176 42.2812 104.755 36.5625 104.755C35.3438 104.755 34.2188 104.48 33.2812 103.931ZM90.2812 85.34C91.875 94.956 90.5625 101.733 86.7188 103.931C85.7812 104.48 84.6562 104.755 83.4375 104.755C77.8125 104.755 70.7812 100.268 63.75 93.4907C67.0312 90.0107 70.3125 85.9811 73.5 81.5852C78.9375 81.1273 84.0938 80.3031 88.9688 79.2957C89.5312 81.402 89.9062 83.4168 90.2812 85.34ZM98.7188 71.0534C96.8438 71.786 94.7812 72.4271 92.7188 72.9766C91.2188 68.3975 89.3438 63.5437 87.0938 58.69C89.3438 53.8362 91.3125 49.074 92.7188 44.4949C105.656 48.1581 113.438 53.653 113.438 58.7815C113.438 63.0858 108 67.6649 98.7188 71.0534Z" fill="#61DAFB"></path>
  </symbol>
  <symbol fill="none" xmlns="http://www.w3.org/2000/svg" viewBox="0 0 120 118" id="tailwind">
    <path d="M60 23.5085C46.0275 23.5085 36.6325 29.465 31.81 41.3803C31.31 42.6136 32.8525 43.6271 33.85 42.7259C38.9375 38.1298 44.655 36.6083 51 38.1566C55.565 39.2702 58.8275 42.5061 62.44 46.0863C68.32 51.9157 75.1275 58.6659 90 58.6659C103.973 58.6659 113.37 52.707 118.19 40.7917C118.69 39.5584 117.148 38.5449 116.15 39.4461C111.063 44.0422 105.345 45.5661 99 44.0178C94.4375 42.9042 91.175 39.6683 87.5625 36.0881C81.68 30.2562 74.87 23.5085 60 23.5085ZM30 58.6659C16.0275 58.6659 6.63003 64.6247 1.81003 76.54C1.31003 77.7733 2.85253 78.7868 3.85003 77.8857C8.93753 73.2895 14.655 71.7656 21 73.3164C25.5625 74.4325 28.825 77.6659 32.4375 81.2436C38.32 87.0755 45.13 93.8256 60 93.8256C73.9725 93.8256 83.37 87.8668 88.19 75.9515C88.69 74.7182 87.1475 73.7047 86.15 74.6058C81.0625 79.202 75.345 80.7259 69 79.1751C64.435 78.0615 61.1725 74.8256 57.56 71.2479C51.68 65.416 44.8725 58.6659 30 58.6659Z" fill="url(#paint0_linear_5_60)"></path>
    <defs>
      <linearGradient id="paint0_linear_5_60" x1="54.6525" y1="20.1701" x2="63.8258" y2="89.3771" gradientUnits="userSpaceOnUse">
        <stop stop-color="#00C1E0"></stop>
        <stop offset="1" stop-color="#009BB8"></stop>
      </linearGradient>
    </defs>
  </symbol>
</svg>