<svg width="120" height="118" viewBox="0 0 120 118" fill="none" xmlns="http://www.w3.org/2000/svg">
<path d="M60 23.5085C46.0275 23.5085 36.6325 29.465 31.81 41.3803C31.31 42.6136 32.8525 43.6271 33.85 42.7259C38.9375 38.1298 44.655 36.6083 51 38.1566C55.565 39.2702 58.8275 42.5061 62.44 46.0863C68.32 51.9157 75.1275 58.6659 90 58.6659C103.973 58.6659 113.37 52.707 118.19 40.7917C118.69 39.5584 117.148 38.5449 116.15 39.4461C111.063 44.0422 105.345 45.5661 99 44.0178C94.4375 42.9042 91.175 39.6683 87.5625 36.0881C81.68 30.2562 74.87 23.5085 60 23.5085ZM30 58.6659C16.0275 58.6659 6.63003 64.6247 1.81003 76.54C1.31003 77.7733 2.85253 78.7868 3.85003 77.8857C8.93753 73.2895 14.655 71.7656 21 73.3164C25.5625 74.4325 28.825 77.6659 32.4375 81.2436C38.32 87.0755 45.13 93.8256 60 93.8256C73.9725 93.8256 83.37 87.8668 88.19 75.9515C88.69 74.7182 87.1475 73.7047 86.15 74.6058C81.0625 79.202 75.345 80.7259 69 79.1751C64.435 78.0615 61.1725 74.8256 57.56 71.2479C51.68 65.416 44.8725 58.6659 30 58.6659Z" fill="url(#paint0_linear_5_60)"/>
<defs>
<linearGradient id="paint0_linear_5_60" x1="54.6525" y1="20.1701" x2="63.8258" y2="89.3771" gradientUnits="userSpaceOnUse">
<stop stop-color="#00C1E0"/>
<stop offset="1" stop-color="#009BB8"/>
</linearGradient>
</defs>
</svg>
